<?xml version="1.0" encoding="UTF-8" standalone="no"?>
<!-- Created with Inkscape (http://www.inkscape.org/) -->

<svg
   version="1.1"
   id="svg1"
   width="827.39758"
   height="826.93616"
   viewBox="0 0 827.39758 826.93616"
   sodipodi:docname="css-panama-on-twitter-caja-de-seguro-social-panama-11563297068qxvsykjg0s.png"
   xmlns:inkscape="http://www.inkscape.org/namespaces/inkscape"
   xmlns:sodipodi="http://sodipodi.sourceforge.net/DTD/sodipodi-0.dtd"
   xmlns="http://www.w3.org/2000/svg"
   xmlns:svg="http://www.w3.org/2000/svg">
  <sodipodi:namedview
     id="namedview1"
     pagecolor="#ffffff"
     bordercolor="#000000"
     borderopacity="0.25"
     inkscape:showpageshadow="2"
     inkscape:pageopacity="0.0"
     inkscape:pagecheckerboard="0"
     inkscape:deskcolor="#d1d1d1"
     inkscape:zoom="0.98370198"
     inkscape:cx="419.8426"
     inkscape:cy="429.5"
     inkscape:window-width="1920"
     inkscape:window-height="1056"
     inkscape:window-x="1920"
     inkscape:window-y="24"
     inkscape:window-maximized="1"
     inkscape:current-layer="g1">
    <inkscape:page
       x="0"
       y="0"
       width="827.39758"
       height="826.93616"
       id="page2"
       margin="0"
       bleed="0" />
  </sodipodi:namedview>
  <defs
     id="defs1" />
  <g
     inkscape:groupmode="layer"
     inkscape:label="Image"
     id="g1"
     transform="translate(-6.5321045,-12.751815)">
    <path
       style="fill:#0062af;fill-opacity:1"
       d="m 388.41717,838.72434 c -14.99431,-1.17716 -45.03947,-5.47469 -56,-8.01001 -24.78243,-5.73251 -52.83356,-14.47565 -70,-21.81802 -2.75,-1.17622 -6.8,-2.90032 -9,-3.83133 -22.35991,-9.46244 -52.44388,-26.71771 -75.5,-43.30456 -28.17592,-20.27009 -58.53179,-48.97118 -79.211004,-74.89296 -3.290735,-4.125 -6.726975,-8.40583 -7.636085,-9.51296 -5.28897,-6.44102 -27.15292,-38.60938 -27.15292,-39.95002 0,-0.20447 -1.94817,-3.67145 -4.32927,-7.70439 -21.283475,-36.0485 -40.793189,-90.61746 -47.669623,-133.33263 -4.2677304,-26.51037 -5.3860084,-41.14762 -5.3861634,-70.5 -1.22e-4,-23.14992 0.418947,-32.06672 2.232392,-47.5 9.1497424,-77.86865 38.7663944,-148.8284 87.8569394,-210.5 11.853084,-14.89081 43.736444,-47.54774 57.795734,-59.19798 49.73607,-41.213833 104.45282,-69.031723 165.5,-84.139873 35.02263,-8.66752 61.09151,-11.75325 99.5,-11.77765 37.10088,-0.0236 63.30385,2.89079 96.39093,10.72087 69.17915,16.37128 135.32983,51.81398 185.51136,99.394633 11.57191,10.97215 28.06908,27.99284 33.92346,35 41.07749,49.16601 69.68835,104.04115 84.98509,163 5.75313,22.17448 7.09276,28.87622 9.59488,48 5.44958,41.65127 5.47318,73.17349 0.0854,114 -6.79036,51.4545 -25.70229,106.52216 -51.59048,150.22095 -20.57502,34.73024 -38.69666,58.16566 -66.35793,85.81598 -57.09865,57.07606 -125.24562,94.10979 -206.74421,112.35291 -30.99802,6.93878 -81.99702,10.19919 -116.79848,7.46704 z m 80.01812,-26.74073 C 552.09633,800.58466 624.86943,766.39928 684.91717,710.29063 784.31171,617.41629 827.18482,484.50145 801.41322,349.13064 795.50145,318.07782 779.87274,274.35481 764.19928,245.02063 744.93929,208.97394 723.8783,180.72014 693.97241,150.80969 644.38482,101.21454 584.75391,67.114757 516.7981,49.493017 442.34454,30.186347 361.34763,33.844767 289.60853,59.754597 c -55.9315,20.20064 -102.45656,49.718563 -144.27111,91.533113 -28.37592,28.37591 -49.320314,56.46678 -68.654149,92.07975 -5.14165,9.47094 -18.76611,38.55728 -18.76611,40.06305 0,0.28339 -2.02401,5.92599 -4.4978,12.53909 -8.71216,23.29 -15.637706,52.73169 -19.693906,83.72224 -3.230424,24.6814 -3.226696,67.38508 0.0081,92.67562 5.276799,41.2556 15.389776,77.31767 31.972176,114.01022 30.255315,66.94716 80.075889,124.74591 143.053079,165.96134 40.46334,26.48124 90.15025,46.69946 136.23968,55.43761 9.00682,1.70762 33.5824,5.06114 47.41869,6.47063 2.2,0.22411 16.825,0.26688 32.5,0.095 21.74546,-0.23839 32.05932,-0.7974 43.51812,-2.35868 z m -73.01812,-28.02834 c -3.9441,-0.61959 -3.96012,-0.6392 -1.14584,-1.40329 1.56979,-0.4262 3.93202,-1.48115 5.2494,-2.34433 6.03657,-3.95532 22.86336,-34.89078 35.53984,-65.33876 l 1.04023,-2.49857 1.51083,2.99857 c 4.17082,8.27791 17.38092,29.39027 25.31107,40.4521 11.21527,15.64427 16.31882,20.86147 20.99447,21.46198 1.925,0.24723 3.725,0.52217 4,0.61097 1.21265,0.39157 -14.59141,3.10602 -26,4.46566 -13.98732,1.66696 -21.57776,1.89221 -14.05448,0.41706 2.44503,-0.47941 5.13896,-1.5651 5.9865,-2.41264 1.38797,-1.38798 1.31546,-1.96077 -0.73028,-5.76877 -1.2492,-2.32529 -3.49312,-5.69562 -4.9865,-7.48963 l -2.71524,-3.26184 -15.17805,0.66486 -15.17806,0.66485 -3.20645,6.31723 c -3.05878,6.02628 -3.13153,6.43158 -1.57952,8.80025 1.05999,1.61774 2.93639,2.70209 5.38451,3.11165 2.06666,0.34574 4.20757,0.78125 4.75757,0.96779 1.79177,0.60769 -20.88621,0.23111 -25,-0.41514 z m 44.375,-22.71281 c 1.71875,-0.34375 3.125,-1.09348 3.125,-1.66607 0,-0.57258 -1.97034,-4.22883 -4.37853,-8.125 -2.40819,-3.89616 -5.11975,-8.54643 -6.02568,-10.33393 -0.90593,-1.7875 -2.00192,-3.25 -2.43552,-3.25 -0.71111,0 -12.16027,22.05727 -12.16027,23.42726 0,0.77411 17.95766,0.73121 21.875,-0.0523 z m -73.52033,14.375 c -12.78805,-17.41861 -22.88463,-34.12645 -31.4237,-52 -2.29917,-4.8125 -4.46171,-8.74238 -4.80564,-8.73307 -0.34393,0.009 -3.98288,10.61957 -8.08655,23.57835 -8.50064,26.84378 -8.50075,26.89324 -0.0676,31.15472 6.70968,3.39056 2.36282,2.71507 -11.26377,-1.75038 -14.78907,-4.84639 -16.51683,-5.81422 -9.31311,-5.21683 4.87423,0.40421 5.73729,0.17723 7.79346,-2.04961 1.48359,-1.60673 5.30392,-11.43202 10.66019,-27.41634 8.16147,-24.35566 8.31502,-24.99102 6.87345,-28.44118 -0.81098,-1.94094 -2.76756,-4.53527 -4.34796,-5.76517 -1.5804,-1.2299 -2.19845,-2.02417 -1.37345,-1.76504 0.825,0.25913 6.47208,2.11189 12.54907,4.11724 l 11.04907,3.64609 5.30421,10.69561 c 8.35372,16.84476 22.11618,39.03024 23.86967,38.4786 0.69412,-0.21837 2.15954,-8.96824 4.35024,-25.97478 1.06496,-8.2674 1.01019,-9.45712 -0.54459,-11.83001 -0.95074,-1.45102 -3.15716,-3.2596 -4.90315,-4.01907 -3.96387,-1.72419 -4.30522,-1.72385 8.68422,-0.009 10.0952,1.33296 14.79794,2.54962 9.85498,2.54962 -4.12357,0 -7.20075,2.21512 -8.21654,5.91471 -0.81779,2.97846 -5.68725,37.69973 -7.58515,54.08529 -0.76627,6.61563 -1.35583,9 -2.22534,9 -0.42636,0 -3.50077,-3.7125 -6.83202,-8.25 z m 130.48448,-0.8994 c 7.15892,-3.54357 7.15919,-3.57612 0.25856,-31.5069 -3.37586,-13.66403 -6.84143,-26.75705 -7.70125,-29.09559 -1.65694,-4.50652 -4.14947,-5.9108 -8.88467,-5.00561 -1.3482,0.25772 -2.21333,0.0836 -1.92251,-0.38696 0.29081,-0.47055 1.2897,-0.86567 2.21974,-0.87805 0.93004,-0.0124 6.99926,-1.53113 13.48715,-3.375 l 11.79617,-3.3525 7.70383,8.41489 c 8.43772,9.21651 28.28538,27.58691 29.01597,26.85631 0.78746,-0.78745 0.92781,-4.36187 1.10026,-28.02119 l 0.16764,-23 11.587,-6.5 c 13.27046,-7.44437 15.13658,-8.2404 10.58296,-4.51438 -2.20125,1.80119 -3.25,3.52685 -3.25,5.34768 0,2.58415 5.89311,13.60099 20.41607,38.1667 10.07509,17.04209 11.5428,18.15141 18.44671,13.94237 5.57387,-3.39815 4.56865,-1.51198 -1.25487,2.35462 -7.2363,4.80463 -34.57067,19.07359 -35.24554,18.39871 -0.29352,-0.29351 0.51738,-1.07635 1.80198,-1.73964 3.55416,-1.83515 6.8323,-5.12091 6.86441,-6.88037 0.0326,-1.7887 -25.19805,-52.03295 -26.14192,-52.05886 -0.33724,-0.009 -0.91244,13.59567 -1.27823,30.23317 -0.72734,33.08279 -1.22483,39.76147 -2.9593,39.72747 -2.5829,-0.0506 -30.93487,-27.76595 -45.41142,-44.3917 -2.34417,-2.69218 -4.47499,-4.682 -4.73517,-4.42182 -0.26018,0.26018 1.36509,7.41722 3.61172,15.90455 10.91684,41.24178 10.56254,40.51295 19.58829,40.29581 7.29317,-0.17546 5.49407,0.6981 -9.29834,4.5148 -14.26144,3.67971 -16.44152,3.88017 -10.56524,0.97149 z M 286.91717,759.41122 c -7.02129,-2.63862 -32.7391,-15.3126 -33.46921,-16.49394 -0.47152,-0.76293 0.3878,-0.62616 2.30949,0.36758 3.91647,2.02529 7.77573,2.02566 8.55273,8.1e-4 0.33385,-0.86998 0.59716,-5.03248 0.58515,-9.25 l -0.0218,-7.66821 -9.22816,-5.25675 c -5.07549,-2.89121 -10.89599,-6.26621 -12.93446,-7.5 l -3.70634,-2.24325 -4.64449,2.5 c -4.55448,2.45155 -8.44291,6.26941 -8.44291,8.28969 0,0.56099 1.9125,2.84075 4.25,5.06613 2.3375,2.22538 3.38042,3.71333 2.31761,3.30656 -2.69835,-1.03275 -23.69919,-15.86413 -23.18759,-16.37573 0.22995,-0.22995 2.24279,0.0732 4.47298,0.67377 3.39465,0.91408 5.03477,0.76176 10.07292,-0.93546 10.35312,-3.48772 33.68329,-16.89759 50.72972,-29.15876 4.4856,-3.22641 8.40229,-5.8662 8.70375,-5.8662 0.30146,0 0.29065,9.1125 -0.024,20.25 -0.58835,20.82437 0.74465,49.20406 2.53179,53.90205 0.55487,1.45863 2.26965,3.82113 3.81063,5.25 3.09535,2.87017 2.54545,3.10463 -2.67779,1.14171 z m -21.09725,-47.27823 c 0.0792,-5.37104 0.40857,-11.22803 0.73192,-13.01553 0.3548,-1.96137 0.17527,-3.25 -0.4528,-3.25 -0.5724,0 -4.78498,2.32806 -9.3613,5.17347 -4.57631,2.84541 -9.36101,5.79909 -10.63266,6.56374 -1.27165,0.76464 -2.16793,1.82274 -1.99173,2.35133 0.43616,1.30847 20.0037,12.90596 20.87091,12.36999 0.38041,-0.2351 0.75646,-4.82195 0.83566,-10.193 z m 345.62739,12.09492 c 1.59203,-2.34599 2.46986,-5.03892 2.46986,-7.57684 0,-6.9217 -3.9919,-30.67885 -8.56409,-50.96778 -2.43975,-10.8263 -4.43591,-19.94638 -4.43591,-20.26685 0,-0.32047 2.14395,0.50375 4.76434,1.8316 17.5861,8.91155 54.568,21.64925 63.44204,21.85139 3.32551,0.0757 5.36965,-0.4433 6.78295,-1.72231 1.11261,-1.0069 2.29074,-1.56293 2.61806,-1.23561 0.678,0.678 -4.97715,7.0976 -18.03765,20.47595 -8.6788,8.89001 -13.53907,12.56756 -8.15863,6.17327 4.6519,-5.52847 3.64613,-6.87334 -8.23543,-11.01206 l -5.32432,-1.85463 -9.07245,7.72171 c -4.98984,4.24694 -10.17273,8.63403 -11.51751,9.74908 -2.35001,1.94855 -2.40274,2.2564 -1.35612,7.91808 1.13682,6.1496 3.28021,9.55455 6.01452,9.55455 0.8854,0 3.33891,-0.92674 5.45225,-2.05942 2.11334,-1.13268 4.00927,-1.8926 4.21317,-1.68869 0.60125,0.60124 -21.25019,16.74811 -22.66509,16.74811 -0.47292,0 0.25158,-1.6378 1.61001,-3.63955 z m 13.89068,-36.86045 c 4.67103,-3.85 8.39972,-7.61091 8.28598,-8.35758 -0.11374,-0.74666 -2.91981,-2.37617 -6.23571,-3.62111 -3.3159,-1.24495 -8.42315,-3.4768 -11.34943,-4.95966 -2.92629,-1.48286 -5.53647,-2.48017 -5.80041,-2.21623 -0.76624,0.76624 4.95378,26.73085 5.82213,26.42812 0.43156,-0.15044 4.60641,-3.42354 9.27744,-7.27354 z m -447.08071,-0.3026 c -11.69032,-11.64987 -20.07711,-21.1974 -18.62032,-21.1974 0.49832,0 2.19941,1.35 3.78021,3 5.50966,5.75084 7.5867,4.44941 33.75,-21.147 17.69293,-17.30958 18.37801,-18.38112 15.25,-23.853 -2.85081,-4.98697 -1.36109,-4.05302 5.75,3.60484 3.9875,4.2941 10.92278,11.54056 15.41174,16.10326 9.60078,9.75848 12.33977,14.7232 12.33452,22.35762 -0.007,9.8722 -6.00084,15.92362 -15.7795,15.93054 -6.45673,0.005 -12.5771,-2.88592 -21.06174,-9.94692 l -6.00696,-4.99904 -9.07403,9.58797 c -10.34968,10.93587 -10.96223,12.81838 -5.87786,18.06412 1.75789,1.81369 2.69844,3.29761 2.09011,3.29761 -0.60833,0 -5.98411,-4.86117 -11.94617,-10.8026 z m 47.3151,-18.80729 c 7.45133,-5.54336 10.28863,-15.3158 6.18309,-21.29628 -4.16511,-6.06727 -5.1885,-6.12363 -10.01333,-0.55155 -2.36108,2.72675 -6.96535,7.77693 -10.23173,11.22262 l -5.93887,6.2649 2.88525,3.01156 c 5.07413,5.29624 11.1643,5.77616 17.11559,1.34875 z m 127.84479,-9.46175 c -15.83356,-0.5657 -16.10403,-0.61401 -26,-4.64343 -5.5,-2.23948 -14.275,-5.76083 -19.5,-7.82521 -5.225,-2.06439 -9.66073,-3.88557 -9.85717,-4.04708 -0.19644,-0.1615 -1.23721,-8.30792 -2.31282,-18.10314 -1.48717,-13.54315 -2.35983,-18.19992 -3.64283,-19.43926 -0.92795,-0.89637 -9.81604,-8.99778 -19.75131,-18.00312 l -18.06413,-16.37336 -37.55992,-22.44058 -37.55992,-22.44058 -8.71857,-20.23223 -8.71856,-20.23223 -0.56101,-32.32407 -0.56101,-32.32407 -4.42161,-10.5 c -2.43188,-5.775 -5.36823,-12.99575 -6.52522,-16.04611 l -2.10361,-5.54612 19.47551,-26.95388 c 27.03228,-37.41237 26.04832,-35.87556 29.3843,-45.89458 l 3.00212,-9.01634 19.49788,-16.32552 c 26.33365,-22.04909 22.78455,-20.19081 30.98519,-16.22359 l 6.85002,3.31383 6.14128,13.09615 c 3.37771,7.20289 7.94874,16.15779 10.15785,19.89979 l 4.01658,6.80363 -3.56088,4.34557 -3.56087,4.34558 2.98975,22.19258 2.98974,22.19258 -9.50539,10.8103 c -5.22796,5.94567 -9.50539,11.2939 -9.50539,11.88497 0,1.80135 4.45038,12.11828 5.22807,12.11977 0.40043,7.6e-4 4.00043,-1.52437 8,-3.38918 13.30149,-6.20187 21.04005,-9.60943 21.82299,-9.60943 0.42594,0 9.30967,8.48061 19.74162,18.84579 l 18.96719,18.84579 -0.50079,19.90421 -0.50079,19.90421 14.27766,11.5 c 7.85271,6.325 14.93279,11.88823 15.73351,12.36274 0.85403,0.50609 3.90382,0.34324 7.37769,-0.39397 5.34528,-1.13434 6.04538,-1.08773 7.1908,0.47873 1.08669,1.48613 1.84031,1.58159 5.24614,0.66449 3.97612,-1.07066 3.97801,-1.07359 7.31136,-11.34146 3.23188,-9.95532 6.80046,-17.77053 8.11438,-17.77053 2.09426,0 4.93719,5.08457 5.58571,9.99004 0.39919,3.01951 1.55734,6.84451 2.57365,8.5 1.4972,2.43878 1.72356,4.13015 1.19284,8.91306 l -0.65501,5.90311 6.86321,-0.70316 c 3.77477,-0.38674 7.0063,-0.84624 7.18118,-1.02113 0.17488,-0.17488 -0.13664,-2.28986 -0.69227,-4.69994 -0.55564,-2.41009 -1.02125,-9.03559 -1.03469,-14.72333 -0.0205,-8.65596 -0.6882,-13.049 -4.09717,-26.9553 -4.20926,-17.17095 -4.77913,-21.01601 -3.43668,-23.18815 1.05386,-1.70517 5.15146,7.96613 6.03063,14.23368 1.20308,8.57675 2.47877,6.19286 2.47877,-4.63211 v -10.50126 l -4.14549,-6.61166 c -2.88402,-4.59971 -5.31843,-7.21004 -8,-8.57808 -4.0328,-2.05737 -4.99689,-4.73279 -2.46322,-6.83555 2.8605,-2.374 2.81322,-12.10254 -0.11707,-24.0874 -0.94259,-3.8552 -2.81671,-4.66335 -11.32722,-4.88451 -3.62599,-0.0942 -5.40752,0.51011 -8.75,2.9682 -4.11559,3.02664 -5.18899,5.18237 -3.1943,6.41516 0.66422,0.41051 0.64293,1.29196 -0.0631,2.61111 -1.31454,2.45625 0.86251,9.66016 4.56674,15.11143 3.44632,5.0717 3.24756,7.27665 -0.75638,8.39096 -2.83977,0.79032 -3.92283,2.20794 -8.5804,11.23093 -2.93171,5.67954 -5.53429,10.12254 -5.7835,9.87333 -0.24921,-0.2492 -1.37439,-5.57553 -2.50041,-11.83627 -1.55177,-8.62802 -2.01794,-15.20732 -1.926,-27.1831 0.11106,-14.46602 -1.16126,-27.00386 -2.94266,-28.99793 -1.19453,-1.33714 -6.07911,1.51724 -7.5873,4.43375 -0.78115,1.51058 -1.87041,5.81047 -2.42058,9.55531 -1.29773,8.83325 -4.77836,22.47802 -6.06112,23.76078 -0.67077,0.67077 -1.57371,0.63811 -2.72555,-0.0986 -3.04026,-1.94451 -2.20091,-17.04435 2.22458,-40.02036 5.49309,-28.5187 7.84188,-36.59789 12.32456,-42.39315 2.05061,-2.65104 5.02567,-5.37639 6.61124,-6.05633 8.83934,-3.79055 10.43758,-8.43105 6.10737,-17.73284 -1.36959,-2.9421 -2.49019,-6.70214 -2.49019,-8.35564 0,-4.13478 2.78922,-14.54372 4.66384,-17.40476 2.56214,-3.91031 7.57614,-6.39029 12.91984,-6.39029 4.42473,0 5.25932,0.4055 9.56687,4.64829 4.482,4.4146 4.86579,4.58758 7.63415,3.44089 3.82437,-1.58411 10.80934,-8.91015 11.55509,-12.11933 1.03106,-4.43696 -0.35422,-6.83132 -5.73267,-9.90856 -4.48843,-2.56802 -5.32349,-3.55174 -6.38542,-7.52219 -3.08973,-11.55217 0.40773,-20.73673 9.35735,-24.57299 4.32606,-1.85436 4.42514,-1.85182 9.14719,0.23421 9.82757,4.34148 12.10001,6.49733 14.27654,13.54411 l 2.00061,6.47722 -2.08537,3.71042 c -3.57883,6.36767 -2.53335,8.78785 6.28185,14.5419 6.43364,4.19951 18.45434,11.57122 23.59986,14.47265 0.87661,0.4943 2.5764,10.79536 5.22146,31.64313 2.15696,17.00064 4.82483,37.63604 5.92862,45.85645 l 2.00688,14.9462 -2.97835,4.64135 c -2.8774,4.48405 -2.97845,5.04505 -2.98147,16.5538 -0.003,10.41236 0.43166,13.54949 3.44956,24.91245 1.89898,7.15 6.44495,24.475 10.10217,38.5 3.65722,14.025 6.94241,25.81118 7.30044,26.19152 0.35803,0.38033 2.72112,1.24315 5.25132,1.91738 4.51302,1.20259 4.68063,1.16135 8.82926,-2.17258 l 4.2289,-3.39844 -0.26741,-19.82754 -0.26742,-19.82753 19.1121,-19.1121 19.1121,-19.1121 6.32605,2.79963 c 3.47933,1.5398 10.06517,4.54161 14.63519,6.6707 4.57002,2.12908 8.67007,3.87106 9.11122,3.87106 0.85344,0 5.10099,-10.3813 5.04855,-12.33898 -0.0171,-0.63856 -3.65709,-5.21102 -8.08886,-10.16102 -11.53245,-12.88102 -10.89905,-11.31479 -9.30158,-23 0.7519,-5.5 2.0508,-15.35797 2.88645,-21.90661 l 1.51936,-11.9066 -3.50175,-4.27342 -3.50174,-4.27342 3.67035,-6.2625 c 4.32273,-7.37562 15.34887,-30.19414 15.34887,-31.76439 0,-1.32477 13.67455,-8.34949 15.41649,-7.91958 0.68308,0.16859 10.71598,8.18152 22.29533,17.80652 l 21.05338,17.5 2.75111,8.84955 c 2.90078,9.33099 2.46144,8.66487 40.87168,61.96781 6.13287,8.51075 7.66841,11.3218 7.20126,13.18306 -0.32656,1.30114 -3.24189,8.60846 -6.4785,16.2385 l -5.88475,13.8728 -0.47471,32.44414 -0.47471,32.44414 -7.2337,16.5 c -3.97854,9.075 -7.89548,18.08936 -8.70432,20.03192 -1.61499,3.87866 1.2197,2.02892 -49.62773,32.38395 -27.58262,16.46634 -27.91337,16.70379 -44.5,31.94769 -9.19096,8.44693 -17.92143,16.43319 -19.40104,17.74724 -2.52547,2.24289 -2.78671,3.30776 -4.26593,17.3892 -0.86664,8.25 -1.79937,16.38483 -2.07272,18.0774 -0.54236,3.35824 1.60357,2.32526 -30.98111,14.91321 l -11.00997,4.25332 -31.39351,0.37803 -31.39352,0.37804 -8.33133,-14.99494 c -4.58223,-8.24722 -8.72397,-15.12582 -9.20385,-15.28578 -0.47988,-0.15996 -2.51691,2.76277 -4.52674,6.49494 -2.00982,3.73218 -5.80438,10.61078 -8.43235,15.28578 l -4.77813,8.5 h -16.46031 c -9.05318,0 -23.66032,-0.25724 -32.46032,-0.57164 z m 42.25266,-11.17836 c 0.54865,-0.6875 4.39332,-7.34664 8.54372,-14.7981 l 7.54617,-13.5481 0.58322,-23.4519 0.58322,-23.4519 -21.89761,-20.7509 -21.8976,-20.75091 -6.35689,-12.58136 c -7.0315,-13.91653 -5.25384,-12.05609 -32.85689,-34.38707 -9.7689,-7.90308 -11.46882,-9.6969 -11.29284,-11.91665 1.116,-14.07741 2.40339,-29.63339 2.827,-34.15962 0.47618,-5.08785 0.2972,-5.73945 -2.16446,-7.87983 -1.47596,-1.28333 -9.37126,-8.37759 -17.54511,-15.76502 -10.5598,-9.54381 -15.36486,-13.27194 -16.60038,-12.8798 -0.95635,0.30353 -8.48554,3.68214 -16.73152,7.50801 -14.10423,6.5439 -14.99269,7.12226 -14.99269,9.75964 0,1.54193 0.38041,12.0098 0.84535,23.26192 l 0.84535,20.45842 3.07888,4.54158 c 1.69339,2.49788 7.99397,10.99181 14.0013,18.87541 6.00733,7.88359 14.16974,20.03359 18.13871,27 7.06506,12.40075 7.41405,12.81443 16.65335,19.74037 5.19038,3.89081 12.81206,8.58556 16.93706,10.43278 9.2682,4.1504 9.11824,4.01958 7.67246,6.69347 l -1.18978,2.20043 -8.99134,-4.31189 c -4.94524,-2.37154 -13.21872,-7.50456 -18.38551,-11.4067 -9.11711,-6.88558 -9.60087,-7.45739 -16.40283,-19.38855 -3.85477,-6.76155 -12.2546,-19.26873 -18.6663,-27.79373 -6.41169,-8.525 -13.16978,-17.75 -15.01797,-20.5 -1.84819,-2.75 -7.18648,-9.5 -11.86287,-15 -4.67639,-5.5 -9.15967,-10.77689 -9.96285,-11.72642 -1.28348,-1.51738 -1.23692,-3.30754 0.38452,-14.78378 l 1.84483,-13.05736 -5.14741,-10.35002 -5.14741,-10.35001 1.79862,-3.3662 c 0.98924,-1.85142 4.1522,-7.86621 7.02881,-13.36621 l 5.23019,-10 -0.65301,-15.15344 -0.65301,-15.15343 13.602,-18.54018 13.60199,-18.54017 -5.10526,-9.05639 c -2.8079,-4.98101 -5.74814,-9.05639 -6.53386,-9.05639 -0.82554,0 -3.99923,5.1281 -7.51821,12.14802 l -6.08961,12.14801 -13.44948,-0.67497 c -13.41581,-0.67328 -13.45801,-0.66846 -16.86055,1.92678 -3.88462,2.96295 -3.93926,3.11189 -18.14139,49.45216 -4.804,15.675 -8.72477,30.075 -8.71283,32 0.0119,1.925 0.98419,10.38423 2.16056,18.79829 2.10339,15.04476 2.13703,17.15962 0.65436,41.14118 -0.25297,4.09172 -0.73567,14.66672 -1.07266,23.5 l -0.61272,16.06053 20.34926,18.68527 c 30.12268,27.6595 50.97164,46.91217 73.33439,67.71958 10.99182,10.22733 21.94114,20.40597 24.33181,22.61918 l 4.34668,4.02404 2.16819,16.97596 2.16819,16.97597 16.94323,6.72499 16.94322,6.725 15.05678,0.30307 c 8.28122,0.16668 20.06417,0.40294 26.18433,0.525 7.93162,0.1582 11.41405,-0.13707 12.1251,-1.02806 z M 262.5833,436.73544 c -2.50479,-7.87231 -4.46685,-14.38467 -4.36014,-14.47192 0.1067,-0.0873 4.93173,-2.38369 10.72229,-5.10319 l 10.52827,-4.94455 9.84879,2.2529 c 5.41683,1.23909 10.198,2.62322 10.62483,3.07584 0.42683,0.45262 0.94207,7.25261 1.14499,15.1111 0.35337,13.68577 0.28368,14.3058 -1.65312,14.70655 -1.11212,0.23011 -7.42204,0.89824 -14.02204,1.48472 -6.6,0.58649 -13.41294,1.32182 -15.13986,1.63408 l -3.13986,0.56775 z m 22.61601,6.96694 10.78215,-1.16796 -0.28215,-10.42902 -0.28214,-10.42901 -7.66787,-3.50766 -7.66787,-3.50765 -8.29978,4.15417 c -4.56487,2.28479 -8.43876,4.29316 -8.60864,4.46304 -0.26395,0.26394 2.88631,9.22147 6.62551,18.83917 1.23019,3.16422 1.02058,3.14264 15.40079,1.58492 z m 229.56464,197.26734 16.61348,-6.60226 0.7532,-4.45781 c 0.41426,-2.4518 1.40612,-10.09894 2.20413,-16.99364 l 1.45094,-12.53583 4.31573,-3.94546 c 2.37366,-2.17001 10.16574,-9.40675 17.31574,-16.08166 7.15,-6.67491 22.225,-20.60527 33.5,-30.95636 11.275,-10.35109 23.2,-21.37021 26.5,-24.48694 3.3,-3.11672 12.525,-11.65371 20.5,-18.97108 7.975,-7.31737 15.86156,-14.71437 17.5257,-16.43777 l 3.0257,-3.13345 -0.72457,-14 c -0.39851,-7.7 -1.21051,-22.1 -1.80445,-32 -1.02833,-17.14056 -0.95799,-18.8478 1.47316,-35.75616 l 2.55304,-17.75616 -7.58436,-24.74384 c -4.1714,-13.60911 -9.40418,-30.81884 -11.62839,-38.24384 -3.56422,-11.89832 -4.47658,-13.88619 -7.68992,-16.75502 l -3.64591,-3.25502 -13.5,0.62066 -13.5,0.62066 -6.32484,-12.11564 c -3.47866,-6.6636 -6.91547,-12.11564 -7.63734,-12.11564 -0.72188,0 -3.62566,4.06836 -6.45284,9.04079 l -5.14033,9.0408 9.27768,12.57793 c 5.10272,6.91786 11.32668,15.35169 13.83102,18.74184 l 4.55335,6.16392 -0.94634,14.52783 -0.94633,14.52783 7.06171,13.79261 7.06171,13.79261 -4.91873,10.05826 c -2.70529,5.53205 -4.91473,11.22317 -4.90984,12.64693 0.005,1.42376 0.8276,7.37039 1.82826,13.21474 l 1.81939,10.62609 -8.91341,10.37391 c -4.90237,5.70565 -12.01524,14.7189 -15.80637,20.02945 -3.79113,5.31054 -11.29031,15.49992 -16.66485,22.64307 -5.37455,7.14314 -12.6969,18.21933 -16.2719,24.61375 -6.23431,11.15098 -6.86083,11.89576 -15.32762,18.2207 -9.60707,7.17677 -14.1815,9.93473 -22.79357,13.74245 l -5.62118,2.48534 -1.12016,-2.45847 c -0.99979,-2.19432 -0.84721,-2.56224 1.42012,-3.42428 7.49993,-2.85147 14.91912,-7.06766 23.24574,-13.21016 9.57003,-7.05976 9.98421,-7.57467 18.86386,-23.45147 2.51731,-4.50094 9.29318,-14.40094 15.0575,-22 5.76432,-7.59906 12.17939,-16.29828 14.25571,-19.3316 l 3.77513,-5.51513 1.1329,-22.9242 c 0.6231,-12.60831 0.79061,-23.24357 0.37224,-23.63392 -0.6598,-0.6156 -13.23713,-6.44362 -28.40379,-13.1616 l -4.64313,-2.05665 -16.85687,15.28917 c -9.27129,8.40904 -17.16548,15.81144 -17.54266,16.44977 -0.37718,0.63834 0.15687,10.3647 1.18678,21.61415 1.81006,19.77084 1.81186,20.50361 0.0538,21.95354 -6.35089,5.23787 -31.72037,25.82584 -33.7305,27.37315 -1.33839,1.03023 -5.29559,7.58487 -8.79377,14.56587 -6.99525,13.95976 -3.56098,10.07154 -39.35853,44.56098 l -11.41721,11 0.65793,23 0.65792,23 3.83802,6.5 c 2.11091,3.575 4.861,8.525 6.1113,11 1.25031,2.475 3.35996,6.22237 4.68811,8.3275 l 2.41484,3.8275 26.55518,-0.72524 26.55518,-0.72524 z m 39.15322,-192.14913 c -8.525,-0.97306 -15.5,-1.80986 -15.5,-1.85955 0,-11.77898 0.82618,-28.81318 1.42674,-29.41652 0.45053,-0.45262 5.25109,-1.83675 10.66792,-3.07584 l 9.84879,-2.2529 10.52827,4.94455 c 5.79056,2.7195 10.66898,5.06933 10.84095,5.22185 0.17197,0.15251 -1.81629,6.62409 -4.41836,14.38129 -3.52299,10.50261 -5.1349,14.06854 -6.31267,13.96515 -0.8699,-0.0764 -8.55664,-0.93498 -17.08164,-1.90803 z m 19.11249,-14.45313 c 2.13151,-5.5 3.87285,-10.225 3.86964,-10.5 -0.003,-0.275 -3.8131,-2.48153 -8.46644,-4.90339 l -8.4606,-4.40339 -7.77755,3.55785 -7.77754,3.55786 -0.28275,10.48862 -0.28274,10.48862 9.28274,0.98576 c 16.56884,1.75949 15.41092,2.29913 19.89524,-9.27193 z m -346.6272,110.59096 c -2.19191,-2.14997 -13.21029,-12.31076 -24.48529,-22.57953 l -20.5,-18.6705 -0.63807,-9.17046 c -0.35094,-5.04376 -0.68844,-23.25158 -0.75,-40.46183 -0.0993,-27.74859 -0.40009,-33.33439 -2.65709,-49.33621 l -2.54516,-18.04485 4.04182,-13.66379 c 2.223,-7.51508 5.13348,-17.15129 6.46774,-21.41379 1.33426,-4.2625 2.06254,-7.75 1.61841,-7.75 -0.99729,0 -33.03765,44.53787 -33.03765,45.92415 0,0.54966 2.65112,7.42909 5.89137,15.28762 l 5.89137,14.28823 0.67431,32.68854 0.6743,32.68855 8.19212,18.54961 8.19211,18.54962 22.49221,13.49059 c 12.37072,7.41983 22.93559,13.50016 23.4775,13.51184 0.54192,0.0117 -0.80808,-1.73782 -3,-3.88779 z m 399.40059,-4.75444 c 8.03777,-4.76491 18.22142,-10.84521 22.63033,-13.51177 l 8.01621,-4.8483 4.9069,-11.23822 c 2.6988,-6.18103 6.44424,-14.61323 8.32321,-18.73823 l 3.41631,-7.5 0.51684,-32.5 0.51685,-32.5 5.89373,-14.28823 c 3.24156,-7.85853 5.89374,-14.79277 5.89374,-15.40943 0,-0.61666 -3.29272,-5.66196 -7.31716,-11.21177 -4.02443,-5.54981 -11.26321,-15.60307 -16.08617,-22.34057 -4.82295,-6.7375 -9.12239,-12.25 -9.5543,-12.25 -0.43191,0 2.12229,9.5625 5.67599,21.25 l 6.46128,21.25 -2.58982,18.58088 c -2.28258,16.37655 -2.58982,21.90406 -2.58982,46.59299 0,15.40667 -0.29176,33.43816 -0.64835,40.06998 l -0.64834,12.05785 -23.28544,21.1669 c -23.56458,21.42065 -26.27018,24.0314 -24.90444,24.0314 0.41708,0 7.33468,-3.89856 15.37245,-8.66348 z M 433.49896,496.86746 c 3.60374,0 4.41821,-0.33506 4.41821,-1.81759 0,-2.13363 -8.64618,-37.75168 -9.87554,-40.68241 -0.99462,-2.37112 -2.00825,10.78239 -2.23479,29 -0.18786,15.10694 -0.2198,14.84066 1.69212,14.10699 0.86998,-0.33385 3.56998,-0.60699 6,-0.60699 z m 28.22035,-8.46881 c 0.22268,-0.22268 -0.98015,-4.59579 -2.67296,-9.71803 -1.6928,-5.12224 -3.99864,-13.36316 -5.12407,-18.31316 -1.12543,-4.95 -3.16299,-12.15 -4.5279,-16 -1.36491,-3.85 -2.91778,-10.6 -3.45082,-15 -0.53304,-4.4 -1.53165,-11.5569 -2.21913,-15.90422 l -1.24997,-7.90422 5.72135,-5.11713 5.72136,-5.11713 -7.1e-4,-8.47865 c -10e-4,-17.762 -7.46757,-35.10285 -16.19059,-37.60458 -3.16384,-0.90738 -3.2507,-1.07482 -2.80398,-5.40523 0.77637,-7.52585 0.37512,-13.21203 -1.34847,-19.10946 -1.98591,-6.79504 -4.24906,-7.81965 -11.76086,-5.32463 -7.00397,2.32634 -7.89539,4.08456 -7.89539,15.57275 0,9.20316 0.11884,9.74035 2.5,11.30054 2.00812,1.31577 2.5,2.46228 2.5,5.82716 0,3.54505 -0.61827,4.81907 -4.02146,8.28666 -4.43375,4.51767 -4.25291,3.84467 -7.99155,29.74188 -1.09284,7.57006 -1.98699,14.83081 -1.98699,16.13499 0,2.19564 3.55172,5.60127 5.84154,5.60127 0.50155,0 1.90736,-4.30781 3.12401,-9.5729 1.86929,-8.08938 2.46953,-9.46654 3.87327,-8.88655 0.91365,0.3775 2.4613,0.91609 3.43922,1.19687 1.05706,0.3035 1.59405,1.16986 1.32429,2.13654 -0.24957,0.89432 -0.96087,4.78789 -1.58067,8.65236 -1.10244,6.87375 -1.05177,7.22119 2.33311,16 4.84468,12.56487 8.19094,19.83007 11.29131,24.51505 2.62154,3.96142 5.18897,14.56249 5.30131,21.88947 0.0375,2.443 1.6871,5.89816 5.72928,12 8.43881,12.73872 7.90004,12.27286 12.14324,10.49994 1.96755,-0.82209 3.75955,-1.67691 3.98223,-1.89959 z M 247.45903,448.11746 c -0.26498,-2.0625 -0.96427,-9.15 -1.55399,-15.75 -0.58972,-6.6 -1.29575,-13.44718 -1.56897,-15.21595 -0.47752,-3.09148 -0.25332,-3.33799 5.79217,-6.36852 3.45891,-1.73391 6.4014,-3.2492 6.53886,-3.36732 0.13747,-0.11811 -1.30005,-3.77728 -3.19448,-8.13148 l -3.44442,-7.91673 2.26579,-2.5 c 11.04348,-12.18506 17.62274,-20.31112 17.62047,-21.76311 -0.004,-2.84868 -4.77489,-34.34783 -5.27808,-34.85101 -0.2552,-0.2552 -5.49474,5.29107 -11.64342,12.32506 l -11.17943,12.78906 0.56283,4.5 c 0.51432,4.11217 -0.0295,5.65453 -6.3097,17.89608 l -6.87253,13.39608 4.79323,10.16165 4.79324,10.16165 -1.87461,12.44227 -1.87461,12.44227 2.67856,3 c 5.22217,5.84887 9.61727,10.5 9.922,10.5 0.16987,0 0.0921,-1.6875 -0.17291,-3.75 z m 349.52662,-1 c 1.9109,-2.0625 4.50221,-4.9306 5.75846,-6.37355 l 2.2841,-2.62355 -1.99783,-12.29626 -1.99782,-12.29626 4.8505,-10.28306 4.8505,-10.28307 -6.83437,-13.27267 c -6.21988,-12.07933 -6.78667,-13.67948 -6.3039,-17.79713 l 0.53046,-4.52445 -11.22014,-12.80082 c -6.17107,-7.04045 -11.40569,-12.61526 -11.63249,-12.38846 -0.22679,0.22679 -1.57516,8.37093 -2.99637,18.09807 -2.26024,15.46973 -2.40373,17.89908 -1.14513,19.38847 0.79138,0.93651 5.34127,6.26041 10.11085,11.83089 l 8.67197,10.12815 -3.49863,7.67725 c -1.92425,4.22249 -3.49864,7.81587 -3.49864,7.98529 0,0.16942 2.68483,1.51291 5.96629,2.98554 3.28146,1.47264 6.15874,2.99659 6.39396,3.38657 0.23522,0.38998 -0.31544,8.92155 -1.22369,18.95905 -0.90825,10.0375 -1.40186,18.25 -1.09691,18.25 0.30495,0 2.11792,-1.6875 4.02883,-3.75 z m -350.90739,-103 c 1.96185,-2.0625 7.92058,-8.83023 13.24163,-15.0394 l 9.67464,-11.2894 -1.7213,-5.4606 c -0.94672,-3.00333 -2.02728,-5.4606 -2.40126,-5.4606 -0.37398,0 -5.9168,6.9975 -12.31738,15.55 -11.18829,14.94986 -11.63742,15.74103 -11.63742,20.5 0,2.7225 0.35867,4.95 0.79705,4.95 0.43838,0 2.4022,-1.6875 4.36404,-3.75 z m 352.83891,-1.26456 c 0,-4.84674 -0.39002,-5.53278 -11.65435,-20.5 -6.40989,-8.51699 -11.95271,-15.48544 -12.31738,-15.48544 -0.36466,0 -1.43996,2.46471 -2.38954,5.47713 l -1.72651,5.47713 13.13355,15.02287 c 7.22345,8.26258 13.5432,15.02287 14.04389,15.02287 0.50069,0 0.91034,-2.25655 0.91034,-5.01456 z M 239.62898,289.36746 c 8.32053,-15.96476 7.65311,-16.05412 -9.83237,-1.31648 -13.6311,11.48897 -13.67316,11.83923 -1.37944,11.48793 l 6,-0.17145 z m 379.16319,9.875 c 1.71875,-0.34375 3.11347,-0.90625 3.09939,-1.25 -0.0141,-0.34375 -1.54498,-1.75 -3.40198,-3.125 -1.857,-1.375 -7.46006,-5.9875 -12.45124,-10.25 -8.74692,-7.46993 -11.12117,-8.90672 -11.12117,-6.73002 0,1.18049 8.73365,18.86705 10.23651,20.73002 1.07106,1.3277 8.43717,1.66526 13.63849,0.625 z m -29.35898,336.08642 -2.9017,-8.54943 4.78746,-4.70599 4.78745,-4.706 -0.41011,11.77978 c -0.30007,8.61915 -0.80603,12.1757 -1.88575,13.25542 -1.30086,1.30086 -1.81934,0.463 -4.37735,-7.07378 z M 375.01948,476.36746 c -0.0976,-1.1 -0.77751,-6.725 -1.51094,-12.5 -0.76102,-5.99215 -0.95956,-10.90785 -0.46245,-11.45 0.47909,-0.5225 0.87108,-1.98189 0.87108,-3.2431 0,-2.45637 6.34039,-19.02265 8.31285,-21.71996 0.95191,-1.30172 1.17358,-0.0841 1.11869,6.14483 -0.0798,9.05703 -1.70038,17.73144 -4.62724,24.76823 -1.14382,2.75 -2.40477,8.375 -2.80212,12.5 -0.39734,4.125 -0.80228,6.6 -0.89987,5.5 z M 562.16082,219.89155 c -6.0348,-2.73924 -10.58079,-6.43699 -14.9383,-12.15093 -4.97197,-6.51968 -7.66522,-8.28611 -10.40119,-6.82187 -1.1415,0.61091 -2.29277,0.89344 -2.55837,0.62783 -0.26561,-0.26561 2.95956,-5.74044 7.16703,-12.1663 4.20748,-6.42586 7.88894,-11.44439 8.18104,-11.1523 0.29209,0.2921 -0.19453,2.66064 -1.08139,5.26342 -4.32486,12.69277 0.66885,24.8236 12.87272,31.27074 7.45768,3.93979 16.27639,1.72424 19.82019,-4.97949 3.0615,-5.79138 1.85532,-11.38265 -5.66905,-26.27887 -7.96636,-15.77125 -9.63633,-20.38793 -9.63633,-26.63992 0,-6.31802 2.05363,-10.90869 6.79706,-15.19409 11.52273,-10.41009 28.7024,-5.72153 40.11417,10.94769 2.3174,3.38503 5.67284,4.26593 7.8721,2.06667 0.65084,-0.65084 1.44914,-0.91754 1.77401,-0.59267 0.32486,0.32487 -1.34503,3.66987 -3.71088,7.43334 -6.67062,10.61127 -11.52145,17.33433 -12.094,16.76179 -0.28679,-0.28679 0.32658,-2.75325 1.36305,-5.48101 3.32606,-8.75347 2.01621,-17.08768 -3.74305,-23.81609 -4.15208,-4.85077 -8.86815,-7.12203 -14.78827,-7.12203 -3.85879,0 -5.22465,0.56002 -8.34888,3.42316 -3.3347,3.05603 -3.73531,3.94594 -3.73531,8.29762 0,4.14883 1.2955,7.42081 8.70272,21.98005 9.35875,18.39506 10.85623,23.6528 8.85423,31.08767 -1.38166,5.13109 -6.02208,10.6429 -11.17243,13.27041 -5.15681,2.63081 -15.80599,2.61367 -21.64087,-0.0348 z m -306.99003,-1.4281 c -10.85407,-3.53467 -21.32354,-13.34786 -27.06242,-25.36601 -3.62042,-7.58176 -3.6912,-7.96007 -3.6912,-19.72998 0,-11.24519 0.1843,-12.37537 2.93004,-17.96767 3.49034,-7.10883 8.99341,-13.32404 15.39651,-17.38895 4.98139,-3.16236 13.81276,-6.14338 18.19996,-6.14338 3.53768,0 6.36034,-3.19598 5.73088,-6.48883 -0.26905,-1.4074 -0.13916,-2.77522 0.28863,-3.03961 0.84124,-0.51992 16.95398,20.89459 16.95398,22.53254 0,0.54591 -2.18914,-0.58017 -4.86476,-2.5024 -13.02328,-9.35631 -26.88524,-8.65663 -37.73164,1.90448 -6.46942,6.29926 -9.00927,13.52502 -8.03396,22.85628 1.71092,16.36917 14.60683,35.55591 28.16129,41.89881 5.64991,2.64391 7.42153,3.01107 12.85848,2.66487 9.18759,-0.58502 18.45254,-5.36735 23.53951,-12.15049 4.17203,-5.56313 7.07108,-13.70429 7.07108,-19.85715 0,-2.10018 0.45,-3.8185 1,-3.8185 1.28239,0 1.28181,6.24107 -10e-4,13.00642 -2.21435,11.67623 -8.89634,20.05379 -21.15411,26.52201 -6.72868,3.55061 -8.09949,3.89976 -16.34467,4.16303 -5.70326,0.18211 -10.55547,-0.21916 -13.24638,-1.09547 z m 142.75135,-56.34599 c -0.005,-13.79277 1.03608,-18.2217 2.46771,-10.5 1.8466,9.95989 9.97667,18.27858 19.61455,20.06963 8.43198,1.56696 14.60019,-0.28257 19.20894,-5.75976 3.77677,-4.48844 4.26357,-8.27216 1.73599,-13.49343 -2.49753,-5.15921 -4.81695,-7.02881 -19.40854,-15.64445 -13.07706,-7.72139 -19.28664,-12.97095 -21.74515,-18.38328 -5.2793,-11.62225 1.40093,-25.529113 14.02606,-29.199343 6.57472,-1.91132 12.91809,-1.39907 22.44925,1.81286 l 6.85378,2.30967 1.80651,-2.23095 c 0.99358,-1.22702 2.18438,-2.23168 2.64622,-2.23257 0.46184,-8.9e-4 0.70349,6.29911 0.537,14.000003 -0.3011,13.92682 -1.33325,17.80652 -2.61115,9.81494 -1.96079,-12.26211 -10.60389,-19.813323 -22.67827,-19.813323 -7.37118,0 -11.89522,2.34622 -14.30141,7.416893 -2.19552,4.62673 -2.01641,7.78575 0.63493,11.19825 3.52957,4.54287 5.3745,5.8884 20.31691,14.8174 19.9375,11.91386 24.34557,17.52086 23.11883,29.40684 -0.71854,6.96193 -4.41277,12.48423 -11.12958,16.63696 -4.1603,2.57215 -6.09322,3.07833 -12.94435,3.38978 -6.74906,0.3068 -9.49387,-0.0941 -16.94335,-2.47483 l -8.88959,-2.84093 -2.38016,2.97482 -2.38017,2.97482 z"
       id="path1"
       inkscape:export-filename="icon.svg"
       inkscape:export-xdpi="96"
       inkscape:export-ydpi="96" />
  </g>
</svg>
